<?xml version="1.0" encoding="utf-8"?>
<!-- Generator: Adobe Illustrator 16.0.4, SVG Export Plug-In . SVG Version: 6.00 Build 0)  -->
<!DOCTYPE svg PUBLIC "-//W3C//DTD SVG 1.1//EN" "http://www.w3.org/Graphics/SVG/1.1/DTD/svg11.dtd">
<svg version="1.1" xmlns="http://www.w3.org/2000/svg" xmlns:xlink="http://www.w3.org/1999/xlink" x="0px" y="0px" width="3875px"
	 height="1000px" viewBox="0 0 3875 1000" enable-background="new 0 0 3875 1000" xml:space="preserve">

<g id="White">
	<g id="Layer_4" display="none">
		<rect display="inline" width="3877.031" height="1014.844"/>
	</g>
	<path fill="#F3F3F3" d="M799.998,100c-699.996,100.001,150,699.999-599.997,800c0,0,0,0.001-0.001,0.001
		C325,900.001,550,950,700,800S600,300,800,100L799.998,100z"/>
	<path fill="#CCCCCC" d="M800,100c1.549-1.625-350-50-500,100s100,500-100,700C950,800,100,200,800,100z"/>
	<g>
		<path fill="#F3F3F3" d="M1262.812,430.312c-2.295,4.585-4.951,7.812-7.969,9.688c-3.022,1.875-6.616,2.812-10.781,2.812
			c-4.17,0-8.857-1.611-14.062-4.844c-5.21-3.228-11.357-6.821-18.438-10.781c-7.085-3.955-15.366-7.549-24.844-10.781
			c-9.482-3.228-20.679-4.844-33.594-4.844c-11.67,0-21.826,1.406-30.469,4.219c-8.647,2.812-15.938,6.719-21.875,11.719
			s-10.366,10.991-13.281,17.969c-2.92,6.982-4.375,14.639-4.375,22.969c0,10.625,2.969,19.482,8.906,26.562
			c5.938,7.085,13.799,13.125,23.594,18.125c9.79,5,20.938,9.482,33.438,13.438c12.5,3.96,25.259,8.179,38.281,12.656
			c13.018,4.482,25.781,9.688,38.281,15.625s23.643,13.438,33.438,22.5c9.79,9.062,17.656,20.156,23.594,33.281
			s8.906,29.062,8.906,47.812c0,20.42-3.491,39.531-10.469,57.344c-6.982,17.812-17.188,33.335-30.625,46.562
			c-13.438,13.232-29.844,23.647-49.219,31.25S1159.688,805,1134.688,805c-14.375,0-28.545-1.406-42.5-4.219
			c-13.96-2.812-27.344-6.821-40.156-12.031c-12.812-5.205-24.795-11.455-35.938-18.75c-11.147-7.29-21.094-15.415-29.844-24.375
			l24.375-40.312c2.29-2.915,5.049-5.361,8.281-7.344c3.228-1.978,6.821-2.969,10.781-2.969c5.205,0,10.83,2.139,16.875,6.406
			c6.04,4.272,13.174,9.014,21.406,14.219c8.228,5.21,17.915,9.951,29.062,14.219c11.143,4.272,24.531,6.406,40.156,6.406
			c23.955,0,42.5-5.674,55.625-17.031c13.125-11.353,19.688-27.656,19.688-48.906c0-11.875-2.969-21.562-8.906-29.062
			s-13.804-13.799-23.594-18.906c-9.795-5.103-20.938-9.424-33.438-12.969c-12.5-3.54-25.21-7.393-38.125-11.562
			c-12.92-4.165-25.625-9.165-38.125-15c-12.5-5.83-23.647-13.438-33.438-22.812c-9.795-9.375-17.656-21.094-23.594-35.156
			s-8.906-31.406-8.906-52.031c0-16.455,3.281-32.5,9.844-48.125s16.143-29.478,28.75-41.562
			c12.603-12.08,28.071-21.768,46.406-29.062c18.33-7.29,39.268-10.938,62.812-10.938c26.665,0,51.25,4.17,73.75,12.5
			c22.5,8.335,41.665,20,57.5,35L1262.812,430.312z"/>
		<path fill="#F3F3F3" d="M1429.687,335.625v265.938h14.375c5.205,0,9.268-0.728,12.188-2.188c2.915-1.455,6.04-4.165,9.375-8.125
			l79.688-98.438c3.54-4.165,7.29-7.446,11.25-9.844c3.955-2.393,9.165-3.594,15.625-3.594h70.625l-99.688,119.062
			c-3.545,4.375-7.188,8.389-10.938,12.031c-3.75,3.647-7.812,6.826-12.188,9.531c4.375,3.125,8.228,6.772,11.562,10.938
			c3.33,4.17,6.665,8.647,10,13.438L1648.437,800h-69.688c-6.045,0-11.147-1.04-15.312-3.125c-4.17-2.08-7.92-5.625-11.25-10.625
			l-81.562-121.562c-3.125-4.79-6.25-7.915-9.375-9.375c-3.125-1.455-7.812-2.188-14.062-2.188h-17.5V800h-77.188V335.625H1429.687z
			"/>
		<path fill="#F3F3F3" d="M1789.998,385.938c0,6.67-1.357,12.92-4.062,18.75c-2.71,5.835-6.304,10.938-10.781,15.312
			c-4.482,4.375-9.741,7.866-15.781,10.469c-6.045,2.607-12.5,3.906-19.375,3.906c-6.67,0-12.969-1.299-18.906-3.906
			c-5.938-2.603-11.094-6.094-15.469-10.469s-7.866-9.478-10.469-15.312c-2.607-5.83-3.906-12.08-3.906-18.75
			c0-6.875,1.299-13.33,3.906-19.375c2.603-6.04,6.094-11.25,10.469-15.625s9.531-7.861,15.469-10.469
			c5.938-2.603,12.236-3.906,18.906-3.906c6.875,0,13.33,1.304,19.375,3.906c6.04,2.607,11.299,6.094,15.781,10.469
			c4.478,4.375,8.071,9.585,10.781,15.625C1788.641,372.607,1789.998,379.062,1789.998,385.938z M1778.436,479.375V800h-77.188
			V479.375H1778.436z"/>
		<path fill="#F3F3F3" d="M1947.809,335.625V800h-77.188V335.625H1947.809z"/>
		<path fill="#F3F3F3" d="M2117.182,335.625V800h-77.188V335.625H2117.182z"/>
		<path fill="#F3F3F3" d="M2450.93,430.312c-2.295,4.585-4.951,7.812-7.969,9.688c-3.022,1.875-6.616,2.812-10.781,2.812
			c-4.17,0-8.857-1.611-14.062-4.844c-5.21-3.228-11.357-6.821-18.438-10.781c-7.085-3.955-15.366-7.549-24.844-10.781
			c-9.482-3.228-20.679-4.844-33.594-4.844c-11.67,0-21.826,1.406-30.469,4.219c-8.647,2.812-15.938,6.719-21.875,11.719
			s-10.366,10.991-13.281,17.969c-2.92,6.982-4.375,14.639-4.375,22.969c0,10.625,2.969,19.482,8.906,26.562
			c5.938,7.085,13.799,13.125,23.594,18.125c9.79,5,20.938,9.482,33.438,13.438c12.5,3.96,25.259,8.179,38.281,12.656
			c13.018,4.482,25.781,9.688,38.281,15.625s23.643,13.438,33.438,22.5c9.79,9.062,17.656,20.156,23.594,33.281
			s8.906,29.062,8.906,47.812c0,20.42-3.491,39.531-10.469,57.344c-6.982,17.812-17.188,33.335-30.625,46.562
			c-13.438,13.232-29.844,23.647-49.219,31.25S2347.805,805,2322.805,805c-14.375,0-28.545-1.406-42.5-4.219
			c-13.96-2.812-27.344-6.821-40.156-12.031c-12.812-5.205-24.795-11.455-35.938-18.75c-11.147-7.29-21.094-15.415-29.844-24.375
			l24.375-40.312c2.29-2.915,5.049-5.361,8.281-7.344c3.228-1.978,6.821-2.969,10.781-2.969c5.205,0,10.83,2.139,16.875,6.406
			c6.04,4.272,13.174,9.014,21.406,14.219c8.228,5.21,17.915,9.951,29.062,14.219c11.143,4.272,24.531,6.406,40.156,6.406
			c23.955,0,42.5-5.674,55.625-17.031c13.125-11.353,19.688-27.656,19.688-48.906c0-11.875-2.969-21.562-8.906-29.062
			s-13.804-13.799-23.594-18.906c-9.795-5.103-20.938-9.424-33.438-12.969c-12.5-3.54-25.21-7.393-38.125-11.562
			c-12.92-4.165-25.625-9.165-38.125-15c-12.5-5.83-23.647-13.438-33.438-22.812c-9.795-9.375-17.656-21.094-23.594-35.156
			s-8.906-31.406-8.906-52.031c0-16.455,3.281-32.5,9.844-48.125s16.143-29.478,28.75-41.562
			c12.603-12.08,28.071-21.768,46.406-29.062c18.33-7.29,39.268-10.938,62.812-10.938c26.665,0,51.25,4.17,73.75,12.5
			c22.5,8.335,41.665,20,57.5,35L2450.93,430.312z"/>
		<path fill="#F3F3F3" d="M2653.429,888.125c-2.295,5.415-5.264,9.531-8.906,12.344c-3.647,2.812-9.219,4.219-16.719,4.219h-57.5
			l60-128.438l-129.688-296.875h67.5c6.25,0,11.04,1.46,14.375,4.375c3.33,2.92,5.83,6.25,7.5,10L2658.429,660
			c2.29,5.42,4.268,11.045,5.938,16.875c1.665,5.835,3.125,11.67,4.375,17.5c1.665-6.04,3.486-11.875,5.469-17.5
			c1.978-5.625,4.111-11.353,6.406-17.188l64.375-165.938c1.665-4.165,4.424-7.603,8.281-10.312
			c3.853-2.705,8.174-4.062,12.969-4.062h61.875L2653.429,888.125z"/>
		<path fill="#F3F3F3" d="M2873.112,800V479.375h47.188c10,0,16.562,4.688,19.688,14.062l5.312,25.312
			c6.455-6.665,13.281-12.705,20.469-18.125c7.188-5.415,14.79-10.103,22.812-14.062c8.018-3.955,16.611-6.978,25.781-9.062
			c9.165-2.08,19.165-3.125,30-3.125c17.5,0,33.018,2.969,46.562,8.906c13.54,5.938,24.844,14.272,33.906,25
			c9.062,10.732,15.938,23.545,20.625,38.438c4.688,14.897,7.031,31.304,7.031,49.219V800H3075.3V595.938
			c0-19.58-4.531-34.736-13.594-45.469c-9.062-10.728-22.656-16.094-40.781-16.094c-13.335,0-25.835,3.022-37.5,9.062
			c-11.67,6.045-22.71,14.272-33.125,24.688V800H2873.112z"/>
		<path fill="#F3F3F3" d="M3453.735,547.188c-2.295,2.92-4.531,5.21-6.719,6.875c-2.188,1.67-5.366,2.5-9.531,2.5
			c-3.96,0-7.812-1.196-11.562-3.594c-3.75-2.393-8.232-5.103-13.438-8.125c-5.21-3.018-11.406-5.728-18.594-8.125
			c-7.188-2.393-16.094-3.594-26.719-3.594c-13.545,0-25.42,2.451-35.625,7.344c-10.21,4.897-18.701,11.929-25.469,21.094
			c-6.772,9.17-11.826,20.264-15.156,33.281c-3.335,13.022-5,27.764-5,44.219c0,17.085,1.821,32.295,5.469,45.625
			c3.643,13.335,8.906,24.531,15.781,33.594s15.205,15.938,25,20.625c9.79,4.688,20.83,7.031,33.125,7.031
			c12.29,0,22.236-1.509,29.844-4.531c7.603-3.018,14.009-6.353,19.219-10c5.205-3.643,9.736-6.978,13.594-10
			c3.853-3.018,8.174-4.531,12.969-4.531c6.25,0,10.938,2.397,14.062,7.188l22.188,28.125c-8.545,10-17.812,18.389-27.812,25.156
			c-10,6.772-20.366,12.188-31.094,16.25c-10.732,4.062-21.826,6.924-33.281,8.594c-11.46,1.665-22.812,2.5-34.062,2.5
			c-19.795,0-38.438-3.701-55.938-11.094s-32.764-18.174-45.781-32.344c-13.022-14.165-23.335-31.509-30.938-52.031
			c-7.607-20.518-11.406-43.906-11.406-70.156c0-23.54,3.384-45.361,10.156-65.469c6.768-20.103,16.719-37.5,29.844-52.188
			s29.375-26.196,48.75-34.531c19.375-8.33,41.665-12.5,66.875-12.5c23.955,0,44.946,3.857,62.969,11.562
			c18.018,7.71,34.219,18.75,48.594,33.125L3453.735,547.188z"/>
	</g>
</g>
</svg>
