<svg xmlns="http://www.w3.org/2000/svg" viewBox="0 0 3875 1000">
  <path fill="#96C950" d="M300 200C150 350 400 700 200 900c125 .001 350 50 500-100S600 300 800 100c0 0-350-50-500 100z"/>
  <path fill="#0B9375" d="M800 100c1.549-1.625-350-50-500 100s100 500-100 700c750-100-100-700 600-800z"/>
  <path fill="#FCFFFC" d="M1262.812 430.312c-2.295 4.585-4.951 7.812-7.969 9.688-3.022 1.875-6.616 2.812-10.781 2.812-4.17 0-8.857-1.611-14.062-4.844-5.21-3.228-11.357-6.821-18.438-10.781-7.085-3.955-15.366-7.549-24.844-10.781-9.482-3.228-20.679-4.844-33.594-4.844-11.67 0-21.826 1.406-30.469 4.219-8.647 2.812-15.938 6.719-21.875 11.719s-10.366 10.991-13.281 17.969c-2.92 6.982-4.375 14.639-4.375 22.969 0 10.625 2.969 19.482 8.906 26.562 5.938 7.085 13.799 13.125 23.594 18.125 9.79 5 20.938 9.482 33.438 13.438 12.5 3.96 25.259 8.179 38.281 12.656 13.018 4.482 25.781 9.688 38.281 15.625s23.643 13.438 33.438 22.5c9.79 9.062 17.656 20.156 23.594 33.281s8.906 29.062 8.906 47.812c0 20.42-3.491 39.531-10.469 57.344-6.982 17.812-17.188 33.335-30.625 46.562-13.438 13.232-29.844 23.647-49.219 31.25S1159.688 805 1134.688 805c-14.375 0-28.545-1.406-42.5-4.219-13.96-2.812-27.344-6.821-40.156-12.031-12.812-5.205-24.795-11.455-35.938-18.75-11.147-7.29-21.094-15.415-29.844-24.375l24.375-40.312c2.29-2.915 5.049-5.361 8.281-7.344 3.228-1.978 6.821-2.969 10.781-2.969 5.205 0 10.83 2.139 16.875 6.406 6.04 4.272 13.174 9.014 21.406 14.219 8.228 5.21 17.915 9.951 29.062 14.219 11.143 4.272 24.531 6.406 40.156 6.406 23.955 0 42.5-5.674 55.625-17.031 13.125-11.353 19.688-27.656 19.688-48.906 0-11.875-2.969-21.562-8.906-29.062s-13.804-13.799-23.594-18.906c-9.795-5.103-20.938-9.424-33.438-12.969-12.5-3.54-25.21-7.393-38.125-11.562-12.92-4.165-25.625-9.165-38.125-15-12.5-5.83-23.647-13.438-33.438-22.812-9.795-9.375-17.656-21.094-23.594-35.156s-8.906-31.406-8.906-52.031c0-16.455 3.281-32.5 9.844-48.125s16.143-29.478 28.75-41.562c12.603-12.08 28.071-21.768 46.406-29.062 18.33-7.29 39.268-10.938 62.812-10.938 26.665 0 51.25 4.17 73.75 12.5 22.5 8.335 41.665 20 57.5 35l-20.623 39.684zm166.875-94.687v265.938h14.375c5.205 0 9.268-.728 12.188-2.188 2.915-1.455 6.04-4.165 9.375-8.125l79.688-98.438c3.54-4.165 7.29-7.446 11.25-9.844 3.955-2.393 9.165-3.594 15.625-3.594h70.625l-99.688 119.062c-3.545 4.375-7.188 8.389-10.938 12.031-3.75 3.647-7.812 6.826-12.188 9.531 4.375 3.125 8.228 6.772 11.562 10.938 3.33 4.17 6.665 8.647 10 13.438L1648.437 800h-69.688c-6.045 0-11.147-1.04-15.312-3.125-4.17-2.08-7.92-5.625-11.25-10.625l-81.562-121.562c-3.125-4.79-6.25-7.915-9.375-9.375-3.125-1.455-7.812-2.188-14.062-2.188h-17.5V800H1352.5V335.625h77.187zm360.311 50.313c0 6.67-1.357 12.92-4.062 18.75-2.71 5.835-6.304 10.938-10.781 15.312-4.482 4.375-9.741 7.866-15.781 10.469-6.045 2.607-12.5 3.906-19.375 3.906-6.67 0-12.969-1.299-18.906-3.906-5.938-2.603-11.094-6.094-15.469-10.469s-7.866-9.478-10.469-15.312c-2.607-5.83-3.906-12.08-3.906-18.75 0-6.875 1.299-13.33 3.906-19.375 2.603-6.04 6.094-11.25 10.469-15.625s9.531-7.861 15.469-10.469c5.938-2.603 12.236-3.906 18.906-3.906 6.875 0 13.33 1.304 19.375 3.906 6.04 2.607 11.299 6.094 15.781 10.469 4.478 4.375 8.071 9.585 10.781 15.625 2.705 6.044 4.062 12.499 4.062 19.375zm-11.562 93.437V800h-77.188V479.375h77.188zm169.373-143.75V800h-77.188V335.625h77.188zm169.372 0V800h-77.188V335.625h77.188zm333.748 94.687c-2.295 4.585-4.951 7.812-7.969 9.688-3.022 1.875-6.616 2.812-10.781 2.812-4.17 0-8.857-1.611-14.062-4.844-5.21-3.228-11.357-6.821-18.438-10.781-7.085-3.955-15.366-7.549-24.844-10.781-9.482-3.228-20.679-4.844-33.594-4.844-11.67 0-21.826 1.406-30.469 4.219-8.647 2.812-15.938 6.719-21.875 11.719s-10.366 10.991-13.281 17.969c-2.92 6.982-4.375 14.639-4.375 22.969 0 10.625 2.969 19.482 8.906 26.562 5.938 7.085 13.799 13.125 23.594 18.125 9.79 5 20.938 9.482 33.438 13.438 12.5 3.96 25.259 8.179 38.281 12.656 13.018 4.482 25.781 9.688 38.281 15.625s23.643 13.438 33.438 22.5c9.79 9.062 17.656 20.156 23.594 33.281s8.906 29.062 8.906 47.812c0 20.42-3.491 39.531-10.469 57.344-6.982 17.812-17.188 33.335-30.625 46.562-13.438 13.232-29.844 23.647-49.219 31.25S2347.804 805 2322.804 805c-14.375 0-28.545-1.406-42.5-4.219-13.96-2.812-27.344-6.821-40.156-12.031-12.812-5.205-24.795-11.455-35.938-18.75-11.147-7.29-21.094-15.415-29.844-24.375l24.375-40.312c2.29-2.915 5.049-5.361 8.281-7.344 3.228-1.978 6.821-2.969 10.781-2.969 5.205 0 10.83 2.139 16.875 6.406 6.04 4.272 13.174 9.014 21.406 14.219 8.228 5.21 17.915 9.951 29.062 14.219 11.143 4.272 24.531 6.406 40.156 6.406 23.955 0 42.5-5.674 55.625-17.031 13.125-11.353 19.688-27.656 19.688-48.906 0-11.875-2.969-21.562-8.906-29.062s-13.804-13.799-23.594-18.906c-9.795-5.103-20.938-9.424-33.438-12.969-12.5-3.54-25.21-7.393-38.125-11.562-12.92-4.165-25.625-9.165-38.125-15-12.5-5.83-23.647-13.438-33.438-22.812-9.795-9.375-17.656-21.094-23.594-35.156s-8.906-31.406-8.906-52.031c0-16.455 3.281-32.5 9.844-48.125s16.143-29.478 28.75-41.562c12.603-12.08 28.071-21.768 46.406-29.062 18.33-7.29 39.268-10.938 62.812-10.938 26.665 0 51.25 4.17 73.75 12.5 22.5 8.335 41.665 20 57.5 35l-20.622 39.684zm202.499 457.813c-2.295 5.415-5.264 9.531-8.906 12.344-3.647 2.812-9.219 4.219-16.719 4.219h-57.5l60-128.438-129.688-296.875h67.5c6.25 0 11.04 1.46 14.375 4.375 3.33 2.92 5.83 6.25 7.5 10L2658.428 660c2.29 5.42 4.268 11.045 5.938 16.875 1.665 5.835 3.125 11.67 4.375 17.5 1.665-6.04 3.486-11.875 5.469-17.5 1.978-5.625 4.111-11.353 6.406-17.188l64.375-165.938c1.665-4.165 4.424-7.603 8.281-10.312 3.853-2.705 8.174-4.062 12.969-4.062h61.875l-174.688 408.75zM2873.111 800V479.375h47.188c10 0 16.562 4.688 19.688 14.062l5.312 25.312c6.455-6.665 13.281-12.705 20.469-18.125 7.188-5.415 14.79-10.103 22.812-14.062 8.018-3.955 16.611-6.978 25.781-9.062 9.165-2.08 19.165-3.125 30-3.125 17.5 0 33.018 2.969 46.562 8.906 13.54 5.938 24.844 14.272 33.906 25 9.062 10.732 15.938 23.545 20.625 38.438 4.688 14.897 7.031 31.304 7.031 49.219V800h-77.188V595.938c0-19.58-4.531-34.736-13.594-45.469-9.062-10.728-22.656-16.094-40.781-16.094-13.335 0-25.835 3.022-37.5 9.062-11.67 6.045-22.71 14.272-33.125 24.688V800h-77.186zm580.623-252.812c-2.295 2.92-4.531 5.21-6.719 6.875-2.188 1.67-5.366 2.5-9.531 2.5-3.96 0-7.812-1.196-11.562-3.594-3.75-2.393-8.232-5.103-13.438-8.125-5.21-3.018-11.406-5.728-18.594-8.125-7.188-2.393-16.094-3.594-26.719-3.594-13.545 0-25.42 2.451-35.625 7.344-10.21 4.897-18.701 11.929-25.469 21.094-6.772 9.17-11.826 20.264-15.156 33.281-3.335 13.022-5 27.764-5 44.219 0 17.085 1.821 32.295 5.469 45.625 3.643 13.335 8.906 24.531 15.781 33.594s15.205 15.938 25 20.625c9.79 4.688 20.83 7.031 33.125 7.031 12.29 0 22.236-1.509 29.844-4.531 7.603-3.018 14.009-6.353 19.219-10 5.205-3.643 9.736-6.978 13.594-10 3.853-3.018 8.174-4.531 12.969-4.531 6.25 0 10.938 2.397 14.062 7.188l22.188 28.125c-8.545 10-17.812 18.389-27.812 25.156-10 6.772-20.366 12.188-31.094 16.25-10.732 4.062-21.826 6.924-33.281 8.594-11.46 1.665-22.812 2.5-34.062 2.5-19.795 0-38.438-3.701-55.938-11.094s-32.764-18.174-45.781-32.344c-13.022-14.165-23.335-31.509-30.938-52.031-7.607-20.518-11.406-43.906-11.406-70.156 0-23.54 3.384-45.361 10.156-65.469 6.768-20.103 16.719-37.5 29.844-52.188s29.375-26.196 48.75-34.531c19.375-8.33 41.665-12.5 66.875-12.5 23.955 0 44.946 3.857 62.969 11.562 18.018 7.71 34.219 18.75 48.594 33.125l-20.314 28.125z"/>
</svg>
